<?xml version="1.0" standalone="no"?> 
<!DOCTYPE svg PUBLIC "-//W3C//DTD SVG 1.1//EN" 
  "http://www.w3.org/Graphics/SVG/1.1/DTD/svg11.dtd"> 

<svg width="800" height="1200" version="1.1" 
  xmlns="http://www.w3.org/2000/svg" xmlns:xlink="http://www.w3.org/1999/xlink">


<defs>

<g id="legend_1_mat" style="font-family:Arial;" >
<rect x="0" y="0" width="56" height="48"   style="fill:#196ABD;stroke:#FFFFFF;stroke-width:1;"/>
<rect x="56" y="0" width="56" height="48"   style="fill:#C20B01;stroke:#FFFFFF;stroke-width:1;"/>
<rect x="112" y="0" width="56" height="48"   style="fill:#196ABD;stroke:#FFFFFF;stroke-width:1;"/>
<rect x="168" y="0" width="56" height="48"   style="fill:#196ABD;stroke:#FFFFFF;stroke-width:1;"/>
<rect x="224" y="0" width="56" height="48"   style="fill:#196ABD;stroke:#FFFFFF;stroke-width:1;"/>
<rect x="280" y="0" width="56" height="48"   style="fill:#196ABD;stroke:#FFFFFF;stroke-width:1;"/>
<rect x="336" y="0" width="56" height="48"   style="fill:#196ABD;stroke:#FFFFFF;stroke-width:1;"/>
<rect x="392" y="0" width="56" height="48"   style="fill:#196ABD;stroke:#FFFFFF;stroke-width:1;"/>
<rect x="448" y="0" width="56" height="48"   style="fill:#C20B01;stroke:#FFFFFF;stroke-width:1;"/>
<rect x="504" y="0" width="56" height="48"   style="fill:#C20B01;stroke:#FFFFFF;stroke-width:1;"/>
<text x="-7.5" y="31.5" style="font-size:15;text-anchor:end;" >Gender</text>
<line x1="0" y1="24" x2="-4.5" y2="24" style="stroke-width:1;"/>
<rect x="0" y="48" width="56" height="48"   style="fill:#C20B01;stroke:#FFFFFF;stroke-width:1;"/>
<rect x="56" y="48" width="56" height="48"   style="fill:#C20B01;stroke:#FFFFFF;stroke-width:1;"/>
<rect x="112" y="48" width="56" height="48"   style="fill:#C20B01;stroke:#FFFFFF;stroke-width:1;"/>
<rect x="168" y="48" width="56" height="48"   style="fill:#196ABD;stroke:#FFFFFF;stroke-width:1;"/>
<rect x="224" y="48" width="56" height="48"   style="fill:#C20B01;stroke:#FFFFFF;stroke-width:1;"/>
<rect x="280" y="48" width="56" height="48"   style="fill:#C20B01;stroke:#FFFFFF;stroke-width:1;"/>
<rect x="336" y="48" width="56" height="48"   style="fill:#C20B01;stroke:#FFFFFF;stroke-width:1;"/>
<rect x="392" y="48" width="56" height="48"   style="fill:#EEEEEE;stroke:#FFFFFF;stroke-width:1;"/>
<rect x="448" y="48" width="56" height="48"   style="fill:#C20B01;stroke:#FFFFFF;stroke-width:1;"/>
<rect x="504" y="48" width="56" height="48"   style="fill:#C20B01;stroke:#FFFFFF;stroke-width:1;"/>
<text x="-7.5" y="79.5" style="font-size:15;text-anchor:end;" >Age</text>
<line x1="0" y1="72" x2="-4.5" y2="72" style="stroke-width:1;"/>
<rect x="0" y="96" width="56" height="48"   style="fill:#EEEEEE;stroke:#FFFFFF;stroke-width:1;"/>
<rect x="56" y="96" width="56" height="48"   style="fill:#EEEEEE;stroke:#FFFFFF;stroke-width:1;"/>
<rect x="112" y="96" width="56" height="48"   style="fill:#EEEEEE;stroke:#FFFFFF;stroke-width:1;"/>
<rect x="168" y="96" width="56" height="48"   style="fill:#EEEEEE;stroke:#FFFFFF;stroke-width:1;"/>
<rect x="224" y="96" width="56" height="48"   style="fill:#EEEEEE;stroke:#FFFFFF;stroke-width:1;"/>
<rect x="280" y="96" width="56" height="48"   style="fill:#696969;stroke:#FFFFFF;stroke-width:1;"/>
<rect x="336" y="96" width="56" height="48"   style="fill:#696969;stroke:#FFFFFF;stroke-width:1;"/>
<rect x="392" y="96" width="56" height="48"   style="fill:#EEEEEE;stroke:#FFFFFF;stroke-width:1;"/>
<rect x="448" y="96" width="56" height="48"   style="fill:#696969;stroke:#FFFFFF;stroke-width:1;"/>
<rect x="504" y="96" width="56" height="48"   style="fill:#696969;stroke:#FFFFFF;stroke-width:1;"/>
<text x="-7.5" y="127.5" style="font-size:15;text-anchor:end;" >Fusion</text>
<line x1="0" y1="120" x2="-4.5" y2="120" style="stroke-width:1;"/>
<rect x="0" y="144" width="56" height="48"   style="fill:#E7298A;stroke:#FFFFFF;stroke-width:1;"/>
<rect x="56" y="144" width="56" height="48"   style="fill:#D95F02;stroke:#FFFFFF;stroke-width:1;"/>
<rect x="112" y="144" width="56" height="48"   style="fill:#7570B3;stroke:#FFFFFF;stroke-width:1;"/>
<rect x="168" y="144" width="56" height="48"   style="fill:#1B9E77;stroke:#FFFFFF;stroke-width:1;"/>
<rect x="224" y="144" width="56" height="48"   style="fill:#66A61E;stroke:#FFFFFF;stroke-width:1;"/>
<rect x="280" y="144" width="56" height="48"   style="fill:#EEEEEE;stroke:#FFFFFF;stroke-width:1;"/>
<rect x="336" y="144" width="56" height="48"   style="fill:#EEEEEE;stroke:#FFFFFF;stroke-width:1;"/>
<rect x="392" y="144" width="56" height="48"   style="fill:#E6AB02;stroke:#FFFFFF;stroke-width:1;"/>
<rect x="448" y="144" width="56" height="48"   style="fill:#EEEEEE;stroke:#FFFFFF;stroke-width:1;"/>
<rect x="504" y="144" width="56" height="48"   style="fill:#EEEEEE;stroke:#FFFFFF;stroke-width:1;"/>
<text x="-7.5" y="175.5" style="font-size:15;text-anchor:end;" >other_fusion</text>
<line x1="0" y1="168" x2="-4.5" y2="168" style="stroke-width:1;"/></g>

<g id="legend_1_outline" style="stroke:#000000;stroke-width:2;font-family:Arial;" >
<rect x="0" y="0" width="560" height="192"   style="fill:none;"/> <line x1="112" y1="0" x2="112" y2="192" />
<rect x="0" y="0" width="560" height="192"   style="fill:none;"/> <line x1="336" y1="0" x2="336" y2="192" /></g>

<g id="legend_1_leg_text" style="font-family:Arial;" >
<text x="0" y="14" style="font-size:16;font-weight:bold;" >Gender</text>
<rect x="84" y="0" width="14" height="14"   style="fill:#196ABD;stroke-width:0;"/>
<text x="101" y="14" style="font-size:14;" >Female</text>
<rect x="168" y="0" width="14" height="14"   style="fill:#C20B01;stroke-width:0;"/>
<text x="185" y="14" style="font-size:14;" >Male</text>
<text x="0" y="32" style="font-size:16;font-weight:bold;" >Age</text>
<rect x="84" y="18" width="14" height="14"   style="fill:#196ABD;stroke-width:0;"/>
<text x="101" y="32" style="font-size:14;" >Adult</text>
<rect x="168" y="18" width="14" height="14"   style="fill:#C20B01;stroke-width:0;"/>
<text x="185" y="32" style="font-size:14;" >Child</text>
<text x="0" y="50" style="font-size:16;font-weight:bold;" >Fusion</text>
<rect x="84" y="36" width="14" height="14"   style="fill:#696969;stroke-width:0;"/>
<text x="101" y="50" style="font-size:14;" >ETV6-RUNX1</text>
<text x="0" y="68" style="font-size:16;font-weight:bold;" >other_fusion</text>
<rect x="84" y="54" width="14" height="14"   style="fill:#1B9E77;stroke-width:0;"/>
<text x="101" y="68" style="font-size:14;" >ERG-FUS</text>
<rect x="168" y="54" width="14" height="14"   style="fill:#D95F02;stroke-width:0;"/>
<text x="185" y="68" style="font-size:14;" >ETV6-BORCS5</text>
<rect x="252" y="54" width="14" height="14"   style="fill:#7570B3;stroke-width:0;"/>
<text x="269" y="68" style="font-size:14;" >ETV6-NID1</text>
<rect x="336" y="54" width="14" height="14"   style="fill:#E7298A;stroke-width:0;"/>
<text x="353" y="68" style="font-size:14;" >ETV6-PMEL</text>
<rect x="420" y="54" width="14" height="14"   style="fill:#66A61E;stroke-width:0;"/>
<text x="437" y="68" style="font-size:14;" >RUNX1-UGGT2</text>
<rect x="504" y="54" width="14" height="14"   style="fill:#E6AB02;stroke-width:0;"/>
<text x="521" y="68" style="font-size:14;" >ZZZ3-AK5</text></g>

<g id="legend_2_mat" style="font-family:Arial;" >
<rect x="0" y="0" width="56" height="48"   style="fill:#3987CC;stroke:#FFFFFF;stroke-width:1;"/>
<rect x="56" y="0" width="56" height="48"   style="fill:#FF7F0E;stroke:#FFFFFF;stroke-width:1;"/>
<rect x="112" y="0" width="56" height="48"   style="fill:#3987CC;stroke:#FFFFFF;stroke-width:1;"/>
<rect x="168" y="0" width="56" height="48"   style="fill:#EEEEEE;stroke:#FFFFFF;stroke-width:1;"/>
<rect x="224" y="0" width="56" height="48"   style="fill:#EEEEEE;stroke:#FFFFFF;stroke-width:1;"/>
<rect x="280" y="0" width="56" height="48"   style="fill:#DB3D3D;stroke:#FFFFFF;stroke-width:1;"/>
<rect x="336" y="0" width="56" height="48"   style="fill:#EEEEEE;stroke:#FFFFFF;stroke-width:1;"/>
<rect x="392" y="0" width="56" height="48"   style="fill:#3987CC;stroke:#FFFFFF;stroke-width:1;"/>
<rect x="448" y="0" width="56" height="48"   style="fill:#3987CC;stroke:#FFFFFF;stroke-width:1;"/>
<rect x="504" y="0" width="56" height="48"   style="fill:#EEEEEE;stroke:#FFFFFF;stroke-width:1;"/>
<text x="-7.5" y="31.5" style="font-size:15;text-anchor:end;" >KRAS</text>
<line x1="0" y1="24" x2="-4.5" y2="24" style="stroke-width:1;"/>
<rect x="0" y="48" width="56" height="48"   style="fill:#DB3D3D;stroke:#FFFFFF;stroke-width:1;"/>
<rect x="56" y="48" width="56" height="48"   style="fill:#EEEEEE;stroke:#FFFFFF;stroke-width:1;"/>
<rect x="112" y="48" width="56" height="48"   style="fill:#EEEEEE;stroke:#FFFFFF;stroke-width:1;"/>
<rect x="168" y="48" width="56" height="48"   style="fill:#EEEEEE;stroke:#FFFFFF;stroke-width:1;"/>
<rect x="224" y="48" width="56" height="48"   style="fill:#DB3D3D;stroke:#FFFFFF;stroke-width:1;"/>
<rect x="280" y="48" width="56" height="48"   style="fill:#EEEEEE;stroke:#FFFFFF;stroke-width:1;"/>
<rect x="336" y="48" width="56" height="48"   style="fill:#3987CC;stroke:#FFFFFF;stroke-width:1;"/>
<rect x="392" y="48" width="56" height="48"   style="fill:#EEEEEE;stroke:#FFFFFF;stroke-width:1;"/>
<rect x="448" y="48" width="56" height="48"   style="fill:#EEEEEE;stroke:#FFFFFF;stroke-width:1;"/>
<rect x="504" y="48" width="56" height="48"   style="fill:#EEEEEE;stroke:#FFFFFF;stroke-width:1;"/>
<text x="-7.5" y="79.5" style="font-size:15;text-anchor:end;" >P53</text>
<line x1="0" y1="72" x2="-4.5" y2="72" style="stroke-width:1;"/>
<rect x="0" y="96" width="56" height="24"   style="fill:#DB3D3D;stroke:none;"/>
<rect x="0" y="120" width="56" height="24"   style="fill:#3987CC;stroke:none;"/>
<rect x="0" y="96" width="56" height="48"   style="fill:none;stroke:#FFFFFF;stroke-width:1;"/>
<rect x="56" y="96" width="56" height="48"   style="fill:#EEEEEE;stroke:#FFFFFF;stroke-width:1;"/>
<rect x="112" y="96" width="56" height="48"   style="fill:#EEEEEE;stroke:#FFFFFF;stroke-width:1;"/>
<rect x="168" y="96" width="56" height="48"   style="fill:#EEEEEE;stroke:#FFFFFF;stroke-width:1;"/>
<rect x="224" y="96" width="56" height="48"   style="fill:#EEEEEE;stroke:#FFFFFF;stroke-width:1;"/>
<rect x="280" y="96" width="56" height="16"   style="fill:#DB3D3D;stroke:none;"/>
<rect x="280" y="112" width="56" height="32"   style="fill:#3987CC;stroke:none;"/>
<rect x="280" y="96" width="56" height="48"   style="fill:none;stroke:#FFFFFF;stroke-width:1;"/>
<rect x="336" y="96" width="56" height="48"   style="fill:#EEEEEE;stroke:#FFFFFF;stroke-width:1;"/>
<rect x="392" y="96" width="56" height="48"   style="fill:#EEEEEE;stroke:#FFFFFF;stroke-width:1;"/>
<rect x="448" y="96" width="56" height="48"   style="fill:#EEEEEE;stroke:#FFFFFF;stroke-width:1;"/>
<rect x="504" y="96" width="56" height="48"   style="fill:#DB3D3D;stroke:#FFFFFF;stroke-width:1;"/>
<text x="-7.5" y="127.5" style="font-size:15;text-anchor:end;" >NRAS</text>
<line x1="0" y1="120" x2="-4.5" y2="120" style="stroke-width:1;"/></g>

<g id="legend_2_outline" style="stroke:#000000;stroke-width:2;font-family:Arial;" >
<rect x="0" y="0" width="560" height="144"   style="fill:none;"/> <line x1="112" y1="0" x2="112" y2="144" />
<rect x="0" y="0" width="560" height="144"   style="fill:none;"/> <line x1="336" y1="0" x2="336" y2="144" /></g>

<g id="legend_2_leg_text" style="font-family:Arial;" >
<text x="0" y="14" style="font-size:16;font-weight:bold;" >KRAS</text>
<rect x="84" y="0" width="14" height="14"   style="fill:#DB3D3D;stroke-width:0;"/>
<text x="101" y="14" style="font-size:14;" >frameshift</text>
<rect x="168" y="0" width="14" height="14"   style="fill:#3987CC;stroke-width:0;"/>
<text x="185" y="14" style="font-size:14;" >missense</text>
<rect x="252" y="0" width="14" height="14"   style="fill:#FF7F0E;stroke-width:0;"/>
<text x="269" y="14" style="font-size:14;" >nonsense</text>
<text x="0" y="32" style="font-size:16;font-weight:bold;" >P53</text>
<rect x="84" y="18" width="14" height="14"   style="fill:#DB3D3D;stroke-width:0;"/>
<text x="101" y="32" style="font-size:14;" >frameshift</text>
<rect x="168" y="18" width="14" height="14"   style="fill:#3987CC;stroke-width:0;"/>
<text x="185" y="32" style="font-size:14;" >missense</text>
<text x="0" y="50" style="font-size:16;font-weight:bold;" >NRAS</text>
<rect x="84" y="36" width="14" height="14"   style="fill:#DB3D3D;stroke-width:0;"/>
<text x="101" y="50" style="font-size:14;" >frameshift</text>
<rect x="168" y="36" width="14" height="14"   style="fill:#3987CC;stroke-width:0;"/>
<text x="185" y="50" style="font-size:14;" >missense</text></g>

<g id="legend_3_mat" style="font-family:Arial;" >
<rect x="0" y="0" width="56" height="48"   style="fill:#FFC966;stroke:#FFFFFF;stroke-width:1;"/>
<rect x="56" y="0" width="56" height="48"   style="fill:#FFEDCC;stroke:#FFFFFF;stroke-width:1;"/>
<rect x="112" y="0" width="56" height="48"   style="fill:#A020F0;stroke:#FFFFFF;stroke-width:1;"/>
<rect x="168" y="0" width="56" height="48"   style="fill:#FFA500;stroke:#FFFFFF;stroke-width:1;"/>
<rect x="224" y="0" width="56" height="48"   style="fill:#FFEDCC;stroke:#FFFFFF;stroke-width:1;"/>
<rect x="280" y="0" width="56" height="48"   style="fill:#FFC966;stroke:#FFFFFF;stroke-width:1;"/>
<rect x="336" y="0" width="56" height="48"   style="fill:#C579F6;stroke:#FFFFFF;stroke-width:1;"/>
<rect x="392" y="0" width="56" height="48"   style="fill:#FFA500;stroke:#FFFFFF;stroke-width:1;"/>
<rect x="448" y="0" width="56" height="48"   style="fill:#EBD2FC;stroke:#FFFFFF;stroke-width:1;"/>
<rect x="504" y="0" width="56" height="48"   style="fill:#FFC966;stroke:#FFFFFF;stroke-width:1;"/>
<text x="-7.5" y="31.5" style="font-size:15;text-anchor:end;" >Gene_1_exp</text>
<line x1="0" y1="24" x2="-4.5" y2="24" style="stroke-width:1;"/>
<rect x="0" y="48" width="56" height="48"   style="fill:#4848FF;stroke:#FFFFFF;stroke-width:1;"/>
<rect x="56" y="48" width="56" height="48"   style="fill:#0000FF;stroke:#FFFFFF;stroke-width:1;"/>
<rect x="112" y="48" width="56" height="48"   style="fill:#9191FF;stroke:#FFFFFF;stroke-width:1;"/>
<rect x="168" y="48" width="56" height="48"   style="fill:#FF4848;stroke:#FFFFFF;stroke-width:1;"/>
<rect x="224" y="48" width="56" height="48"   style="fill:#FFDADA;stroke:#FFFFFF;stroke-width:1;"/>
<rect x="280" y="48" width="56" height="48"   style="fill:#FF9191;stroke:#FFFFFF;stroke-width:1;"/>
<rect x="336" y="48" width="56" height="48"   style="fill:#FF0000;stroke:#FFFFFF;stroke-width:1;"/>
<rect x="392" y="48" width="56" height="48"   style="fill:#DADAFF;stroke:#FFFFFF;stroke-width:1;"/>
<rect x="448" y="48" width="56" height="48"   style="fill:#9191FF;stroke:#FFFFFF;stroke-width:1;"/>
<rect x="504" y="48" width="56" height="48"   style="fill:#9191FF;stroke:#FFFFFF;stroke-width:1;"/>
<text x="-7.5" y="79.5" style="font-size:15;text-anchor:end;" >Gene_2_exp</text>
<line x1="0" y1="72" x2="-4.5" y2="72" style="stroke-width:1;"/></g>

<g id="legend_3_outline" style="stroke:#000000;stroke-width:2;font-family:Arial;" >
<rect x="0" y="0" width="560" height="96"   style="fill:none;"/> <line x1="112" y1="0" x2="112" y2="96" />
<rect x="0" y="0" width="560" height="96"   style="fill:none;"/> <line x1="336" y1="0" x2="336" y2="96" /></g>

<g id="legend_3_leg_text" style="font-family:Arial;" >
<text x="0" y="14" style="font-size:16;font-weight:bold;" >Gene_1_exp</text>
<rect x="84" y="0" width="14" height="14"   style="fill:#FFA500;stroke-width:0;"/>
<rect x="98" y="0" width="14" height="14"   style="fill:#FFC966;stroke-width:0;"/>
<rect x="112" y="0" width="14" height="14"   style="fill:#FFEDCC;stroke-width:0;"/>
<rect x="126" y="0" width="14" height="14"   style="fill:#EBD2FC;stroke-width:0;"/>
<rect x="140" y="0" width="14" height="14"   style="fill:#C579F6;stroke-width:0;"/>
<rect x="154" y="0" width="14" height="14"   style="fill:#A020F0;stroke-width:0;"/>
<text x="0" y="32" style="font-size:16;font-weight:bold;" >Gene_2_exp</text>
<rect x="84" y="18" width="14" height="14"   style="fill:#0000FF;stroke-width:0;"/>
<rect x="98" y="18" width="14" height="14"   style="fill:#4848FF;stroke-width:0;"/>
<rect x="112" y="18" width="14" height="14"   style="fill:#9191FF;stroke-width:0;"/>
<rect x="126" y="18" width="14" height="14"   style="fill:#DADAFF;stroke-width:0;"/>
<rect x="140" y="18" width="14" height="14"   style="fill:#FFDADA;stroke-width:0;"/>
<rect x="154" y="18" width="14" height="14"   style="fill:#FF9191;stroke-width:0;"/>
<rect x="168" y="18" width="14" height="14"   style="fill:#FF4848;stroke-width:0;"/>
<rect x="182" y="18" width="14" height="14"   style="fill:#FF0000;stroke-width:0;"/></g>

<g id="sample_list" style="font-family:Arial;" >
<text x="28" y="0" style="font-size:20;" transform="rotate(90,28,0) ">M1001</text>
<text x="84" y="0" style="font-size:20;" transform="rotate(90,84,0) ">M1002</text>
<text x="140" y="0" style="font-size:20;" transform="rotate(90,140,0) ">M1003</text>
<text x="196" y="0" style="font-size:20;" transform="rotate(90,196,0) ">M1004</text>
<text x="252" y="0" style="font-size:20;" transform="rotate(90,252,0) ">M1005</text>
<text x="308" y="0" style="font-size:20;" transform="rotate(90,308,0) ">M4001</text>
<text x="364" y="0" style="font-size:20;" transform="rotate(90,364,0) ">M4002</text>
<text x="420" y="0" style="font-size:20;" transform="rotate(90,420,0) ">M4003</text>
<text x="476" y="0" style="font-size:20;" transform="rotate(90,476,0) ">M4004</text>
<text x="532" y="0" style="font-size:20;" transform="rotate(90,532,0) ">M4005</text></g>
</defs>


<g id="use" style="font-family:Arial;" transform="translate(20,20)">

<use xlink:href="#legend_1_mat" x="160" y="0"  />
<use xlink:href="#legend_1_outline" x="160" y="0"  />
<use xlink:href="#legend_1_leg_text" x="16" y="662"  />
<use xlink:href="#legend_2_mat" x="160" y="202"  />
<use xlink:href="#legend_2_outline" x="160" y="202"  />
<use xlink:href="#legend_2_leg_text" x="16" y="734"  />
<use xlink:href="#legend_3_mat" x="160" y="356"  />
<use xlink:href="#legend_3_outline" x="160" y="356"  />
<use xlink:href="#legend_3_leg_text" x="16" y="788"  />
<use xlink:href="#sample_list" x="160" y="462"  /></g>


</svg>


