<?xml version="1.0" standalone="no"?> 
<!DOCTYPE svg PUBLIC "-//W3C//DTD SVG 1.1//EN" 
  "http://www.w3.org/Graphics/SVG/1.1/DTD/svg11.dtd"> 

<svg width="1200" height="1600" version="1.1" 
  xmlns="http://www.w3.org/2000/svg" xmlns:xlink="http://www.w3.org/1999/xlink">


<defs>

<g id="legend_1_mat" style="font-family:Arial;" >
<rect x="0" y="0" width="13.1147540983607" height="144"   style="fill:#696969;stroke:#FFFFFF;stroke-width:1;"/>
<rect x="13.1147540983607" y="0" width="13.1147540983607" height="144"   style="fill:#696969;stroke:#FFFFFF;stroke-width:1;"/>
<rect x="26.2295081967213" y="0" width="13.1147540983607" height="144"   style="fill:#696969;stroke:#FFFFFF;stroke-width:1;"/>
<rect x="39.344262295082" y="0" width="13.1147540983607" height="144"   style="fill:#696969;stroke:#FFFFFF;stroke-width:1;"/>
<rect x="52.4590163934426" y="0" width="13.1147540983607" height="144"   style="fill:#696969;stroke:#FFFFFF;stroke-width:1;"/>
<rect x="65.5737704918033" y="0" width="13.1147540983607" height="144"   style="fill:#696969;stroke:#FFFFFF;stroke-width:1;"/>
<rect x="78.6885245901639" y="0" width="13.1147540983607" height="144"   style="fill:#696969;stroke:#FFFFFF;stroke-width:1;"/>
<rect x="91.8032786885246" y="0" width="13.1147540983607" height="144"   style="fill:#696969;stroke:#FFFFFF;stroke-width:1;"/>
<rect x="104.918032786885" y="0" width="13.1147540983607" height="144"   style="fill:#696969;stroke:#FFFFFF;stroke-width:1;"/>
<rect x="118.032786885246" y="0" width="13.1147540983607" height="144"   style="fill:#696969;stroke:#FFFFFF;stroke-width:1;"/>
<rect x="131.147540983607" y="0" width="13.1147540983607" height="144"   style="fill:#696969;stroke:#FFFFFF;stroke-width:1;"/>
<rect x="144.262295081967" y="0" width="13.1147540983607" height="144"   style="fill:#696969;stroke:#FFFFFF;stroke-width:1;"/>
<rect x="157.377049180328" y="0" width="13.1147540983607" height="144"   style="fill:#696969;stroke:#FFFFFF;stroke-width:1;"/>
<rect x="170.491803278689" y="0" width="13.1147540983607" height="144"   style="fill:#696969;stroke:#FFFFFF;stroke-width:1;"/>
<rect x="183.606557377049" y="0" width="13.1147540983607" height="144"   style="fill:#696969;stroke:#FFFFFF;stroke-width:1;"/>
<rect x="196.72131147541" y="0" width="13.1147540983607" height="144"   style="fill:#696969;stroke:#FFFFFF;stroke-width:1;"/>
<rect x="209.83606557377" y="0" width="13.1147540983607" height="144"   style="fill:#696969;stroke:#FFFFFF;stroke-width:1;"/>
<rect x="222.950819672131" y="0" width="13.1147540983607" height="144"   style="fill:#696969;stroke:#FFFFFF;stroke-width:1;"/>
<rect x="236.065573770492" y="0" width="13.1147540983607" height="144"   style="fill:#696969;stroke:#FFFFFF;stroke-width:1;"/>
<rect x="249.180327868852" y="0" width="13.1147540983607" height="144"   style="fill:#696969;stroke:#FFFFFF;stroke-width:1;"/>
<rect x="262.295081967213" y="0" width="13.1147540983607" height="144"   style="fill:#696969;stroke:#FFFFFF;stroke-width:1;"/>
<rect x="275.409836065574" y="0" width="13.1147540983607" height="144"   style="fill:#696969;stroke:#FFFFFF;stroke-width:1;"/>
<rect x="288.524590163934" y="0" width="13.1147540983607" height="144"   style="fill:#696969;stroke:#FFFFFF;stroke-width:1;"/>
<rect x="301.639344262295" y="0" width="13.1147540983607" height="144"   style="fill:#696969;stroke:#FFFFFF;stroke-width:1;"/>
<rect x="314.754098360656" y="0" width="13.1147540983607" height="144"   style="fill:#696969;stroke:#FFFFFF;stroke-width:1;"/>
<rect x="327.868852459016" y="0" width="13.1147540983607" height="144"   style="fill:#696969;stroke:#FFFFFF;stroke-width:1;"/>
<rect x="340.983606557377" y="0" width="13.1147540983607" height="144"   style="fill:#696969;stroke:#FFFFFF;stroke-width:1;"/>
<rect x="354.098360655738" y="0" width="13.1147540983607" height="144"   style="fill:#696969;stroke:#FFFFFF;stroke-width:1;"/>
<rect x="387.213114754098" y="0" width="13.1147540983607" height="144"   style="fill:#696969;stroke:#FFFFFF;stroke-width:1;"/>
<rect x="400.327868852459" y="0" width="13.1147540983607" height="144"   style="fill:#696969;stroke:#FFFFFF;stroke-width:1;"/>
<rect x="413.44262295082" y="0" width="13.1147540983607" height="144"   style="fill:#696969;stroke:#FFFFFF;stroke-width:1;"/>
<rect x="426.55737704918" y="0" width="13.1147540983607" height="144"   style="fill:#696969;stroke:#FFFFFF;stroke-width:1;"/>
<rect x="439.672131147541" y="0" width="13.1147540983607" height="144"   style="fill:#696969;stroke:#FFFFFF;stroke-width:1;"/>
<rect x="452.786885245902" y="0" width="13.1147540983607" height="144"   style="fill:#696969;stroke:#FFFFFF;stroke-width:1;"/>
<rect x="465.901639344262" y="0" width="13.1147540983607" height="144"   style="fill:#696969;stroke:#FFFFFF;stroke-width:1;"/>
<rect x="479.016393442623" y="0" width="13.1147540983607" height="144"   style="fill:#696969;stroke:#FFFFFF;stroke-width:1;"/>
<rect x="492.131147540984" y="0" width="13.1147540983607" height="144"   style="fill:#696969;stroke:#FFFFFF;stroke-width:1;"/>
<rect x="505.245901639344" y="0" width="13.1147540983607" height="144"   style="fill:#696969;stroke:#FFFFFF;stroke-width:1;"/>
<rect x="518.360655737705" y="0" width="13.1147540983607" height="144"   style="fill:#696969;stroke:#FFFFFF;stroke-width:1;"/>
<rect x="531.475409836066" y="0" width="13.1147540983607" height="144"   style="fill:#696969;stroke:#FFFFFF;stroke-width:1;"/>
<rect x="544.590163934426" y="0" width="13.1147540983607" height="144"   style="fill:#696969;stroke:#FFFFFF;stroke-width:1;"/>
<rect x="557.704918032787" y="0" width="13.1147540983607" height="144"   style="fill:#696969;stroke:#FFFFFF;stroke-width:1;"/>
<rect x="570.819672131148" y="0" width="13.1147540983607" height="144"   style="fill:#696969;stroke:#FFFFFF;stroke-width:1;"/>
<rect x="603.934426229508" y="0" width="13.1147540983607" height="144"   style="fill:#696969;stroke:#FFFFFF;stroke-width:1;"/>
<rect x="617.049180327869" y="0" width="13.1147540983607" height="144"   style="fill:#696969;stroke:#FFFFFF;stroke-width:1;"/>
<rect x="630.16393442623" y="0" width="13.1147540983607" height="144"   style="fill:#696969;stroke:#FFFFFF;stroke-width:1;"/>
<rect x="643.27868852459" y="0" width="13.1147540983607" height="144"   style="fill:#696969;stroke:#FFFFFF;stroke-width:1;"/>
<rect x="656.393442622951" y="0" width="13.1147540983607" height="144"   style="fill:#696969;stroke:#FFFFFF;stroke-width:1;"/>
<rect x="669.508196721311" y="0" width="13.1147540983607" height="144"   style="fill:#696969;stroke:#FFFFFF;stroke-width:1;"/>
<rect x="682.622950819672" y="0" width="13.1147540983607" height="144"   style="fill:#696969;stroke:#FFFFFF;stroke-width:1;"/>
<rect x="695.737704918033" y="0" width="13.1147540983607" height="144"   style="fill:#696969;stroke:#FFFFFF;stroke-width:1;"/>
<rect x="708.852459016393" y="0" width="13.1147540983607" height="144"   style="fill:#696969;stroke:#FFFFFF;stroke-width:1;"/>
<rect x="721.967213114754" y="0" width="13.1147540983607" height="144"   style="fill:#696969;stroke:#FFFFFF;stroke-width:1;"/>
<rect x="735.081967213115" y="0" width="13.1147540983607" height="144"   style="fill:#696969;stroke:#FFFFFF;stroke-width:1;"/>
<rect x="748.196721311475" y="0" width="13.1147540983607" height="144"   style="fill:#696969;stroke:#FFFFFF;stroke-width:1;"/>
<rect x="761.311475409836" y="0" width="13.1147540983607" height="144"   style="fill:#696969;stroke:#FFFFFF;stroke-width:1;"/>
<rect x="774.426229508197" y="0" width="13.1147540983607" height="144"   style="fill:#696969;stroke:#FFFFFF;stroke-width:1;"/>
<rect x="787.540983606557" y="0" width="13.1147540983607" height="144"   style="fill:#696969;stroke:#FFFFFF;stroke-width:1;"/>
<rect x="800.655737704918" y="0" width="13.1147540983607" height="144"   style="fill:#696969;stroke:#FFFFFF;stroke-width:1;"/>
<rect x="813.770491803279" y="0" width="13.1147540983607" height="144"   style="fill:#696969;stroke:#FFFFFF;stroke-width:1;"/>
<rect x="826.885245901639" y="0" width="13.1147540983607" height="144"   style="fill:#696969;stroke:#FFFFFF;stroke-width:1;"/>
<text x="-7.5" y="79.5" style="font-size:15;text-anchor:end;" >Age</text>
<line x1="0" y1="72" x2="-4.5" y2="72" style="stroke-width:1;"/>
<rect x="0" y="144" width="13.1147540983607" height="144"   style="fill:#C20B01;stroke:#FFFFFF;stroke-width:1;"/>
<rect x="13.1147540983607" y="144" width="13.1147540983607" height="144"   style="fill:#C20B01;stroke:#FFFFFF;stroke-width:1;"/>
<rect x="26.2295081967213" y="144" width="13.1147540983607" height="144"   style="fill:#C20B01;stroke:#FFFFFF;stroke-width:1;"/>
<rect x="39.344262295082" y="144" width="13.1147540983607" height="144"   style="fill:#C20B01;stroke:#FFFFFF;stroke-width:1;"/>
<rect x="52.4590163934426" y="144" width="13.1147540983607" height="144"   style="fill:#196ABD;stroke:#FFFFFF;stroke-width:1;"/>
<rect x="65.5737704918033" y="144" width="13.1147540983607" height="144"   style="fill:#196ABD;stroke:#FFFFFF;stroke-width:1;"/>
<rect x="78.6885245901639" y="144" width="13.1147540983607" height="144"   style="fill:#196ABD;stroke:#FFFFFF;stroke-width:1;"/>
<rect x="91.8032786885246" y="144" width="13.1147540983607" height="144"   style="fill:#196ABD;stroke:#FFFFFF;stroke-width:1;"/>
<rect x="104.918032786885" y="144" width="13.1147540983607" height="144"   style="fill:#C20B01;stroke:#FFFFFF;stroke-width:1;"/>
<rect x="118.032786885246" y="144" width="13.1147540983607" height="144"   style="fill:#C20B01;stroke:#FFFFFF;stroke-width:1;"/>
<rect x="131.147540983607" y="144" width="13.1147540983607" height="144"   style="fill:#196ABD;stroke:#FFFFFF;stroke-width:1;"/>
<rect x="144.262295081967" y="144" width="13.1147540983607" height="144"   style="fill:#196ABD;stroke:#FFFFFF;stroke-width:1;"/>
<rect x="157.377049180328" y="144" width="13.1147540983607" height="144"   style="fill:#C20B01;stroke:#FFFFFF;stroke-width:1;"/>
<rect x="170.491803278689" y="144" width="13.1147540983607" height="144"   style="fill:#C20B01;stroke:#FFFFFF;stroke-width:1;"/>
<rect x="183.606557377049" y="144" width="13.1147540983607" height="144"   style="fill:#C20B01;stroke:#FFFFFF;stroke-width:1;"/>
<rect x="196.72131147541" y="144" width="13.1147540983607" height="144"   style="fill:#196ABD;stroke:#FFFFFF;stroke-width:1;"/>
<rect x="209.83606557377" y="144" width="13.1147540983607" height="144"   style="fill:#C20B01;stroke:#FFFFFF;stroke-width:1;"/>
<rect x="222.950819672131" y="144" width="13.1147540983607" height="144"   style="fill:#C20B01;stroke:#FFFFFF;stroke-width:1;"/>
<rect x="236.065573770492" y="144" width="13.1147540983607" height="144"   style="fill:#C20B01;stroke:#FFFFFF;stroke-width:1;"/>
<rect x="249.180327868852" y="144" width="13.1147540983607" height="144"   style="fill:#C20B01;stroke:#FFFFFF;stroke-width:1;"/>
<rect x="262.295081967213" y="144" width="13.1147540983607" height="144"   style="fill:#C20B01;stroke:#FFFFFF;stroke-width:1;"/>
<rect x="275.409836065574" y="144" width="13.1147540983607" height="144"   style="fill:#C20B01;stroke:#FFFFFF;stroke-width:1;"/>
<rect x="288.524590163934" y="144" width="13.1147540983607" height="144"   style="fill:#C20B01;stroke:#FFFFFF;stroke-width:1;"/>
<rect x="301.639344262295" y="144" width="13.1147540983607" height="144"   style="fill:#C20B01;stroke:#FFFFFF;stroke-width:1;"/>
<rect x="314.754098360656" y="144" width="13.1147540983607" height="144"   style="fill:#C20B01;stroke:#FFFFFF;stroke-width:1;"/>
<rect x="327.868852459016" y="144" width="13.1147540983607" height="144"   style="fill:#C20B01;stroke:#FFFFFF;stroke-width:1;"/>
<rect x="340.983606557377" y="144" width="13.1147540983607" height="144"   style="fill:#C20B01;stroke:#FFFFFF;stroke-width:1;"/>
<rect x="354.098360655738" y="144" width="13.1147540983607" height="144"   style="fill:#C20B01;stroke:#FFFFFF;stroke-width:1;"/>
<rect x="387.213114754098" y="144" width="13.1147540983607" height="144"   style="fill:#196ABD;stroke:#FFFFFF;stroke-width:1;"/>
<rect x="400.327868852459" y="144" width="13.1147540983607" height="144"   style="fill:#196ABD;stroke:#FFFFFF;stroke-width:1;"/>
<rect x="413.44262295082" y="144" width="13.1147540983607" height="144"   style="fill:#196ABD;stroke:#FFFFFF;stroke-width:1;"/>
<rect x="426.55737704918" y="144" width="13.1147540983607" height="144"   style="fill:#C20B01;stroke:#FFFFFF;stroke-width:1;"/>
<rect x="439.672131147541" y="144" width="13.1147540983607" height="144"   style="fill:#C20B01;stroke:#FFFFFF;stroke-width:1;"/>
<rect x="452.786885245902" y="144" width="13.1147540983607" height="144"   style="fill:#196ABD;stroke:#FFFFFF;stroke-width:1;"/>
<rect x="465.901639344262" y="144" width="13.1147540983607" height="144"   style="fill:#196ABD;stroke:#FFFFFF;stroke-width:1;"/>
<rect x="479.016393442623" y="144" width="13.1147540983607" height="144"   style="fill:#C20B01;stroke:#FFFFFF;stroke-width:1;"/>
<rect x="492.131147540984" y="144" width="13.1147540983607" height="144"   style="fill:#196ABD;stroke:#FFFFFF;stroke-width:1;"/>
<rect x="505.245901639344" y="144" width="13.1147540983607" height="144"   style="fill:#196ABD;stroke:#FFFFFF;stroke-width:1;"/>
<rect x="518.360655737705" y="144" width="13.1147540983607" height="144"   style="fill:#C20B01;stroke:#FFFFFF;stroke-width:1;"/>
<rect x="531.475409836066" y="144" width="13.1147540983607" height="144"   style="fill:#C20B01;stroke:#FFFFFF;stroke-width:1;"/>
<rect x="544.590163934426" y="144" width="13.1147540983607" height="144"   style="fill:#C20B01;stroke:#FFFFFF;stroke-width:1;"/>
<rect x="557.704918032787" y="144" width="13.1147540983607" height="144"   style="fill:#C20B01;stroke:#FFFFFF;stroke-width:1;"/>
<rect x="570.819672131148" y="144" width="13.1147540983607" height="144"   style="fill:#196ABD;stroke:#FFFFFF;stroke-width:1;"/>
<rect x="603.934426229508" y="144" width="13.1147540983607" height="144"   style="fill:#C20B01;stroke:#FFFFFF;stroke-width:1;"/>
<rect x="617.049180327869" y="144" width="13.1147540983607" height="144"   style="fill:#C20B01;stroke:#FFFFFF;stroke-width:1;"/>
<rect x="630.16393442623" y="144" width="13.1147540983607" height="144"   style="fill:#C20B01;stroke:#FFFFFF;stroke-width:1;"/>
<rect x="643.27868852459" y="144" width="13.1147540983607" height="144"   style="fill:#C20B01;stroke:#FFFFFF;stroke-width:1;"/>
<rect x="656.393442622951" y="144" width="13.1147540983607" height="144"   style="fill:#C20B01;stroke:#FFFFFF;stroke-width:1;"/>
<rect x="669.508196721311" y="144" width="13.1147540983607" height="144"   style="fill:#196ABD;stroke:#FFFFFF;stroke-width:1;"/>
<rect x="682.622950819672" y="144" width="13.1147540983607" height="144"   style="fill:#C20B01;stroke:#FFFFFF;stroke-width:1;"/>
<rect x="695.737704918033" y="144" width="13.1147540983607" height="144"   style="fill:#196ABD;stroke:#FFFFFF;stroke-width:1;"/>
<rect x="708.852459016393" y="144" width="13.1147540983607" height="144"   style="fill:#C20B01;stroke:#FFFFFF;stroke-width:1;"/>
<rect x="721.967213114754" y="144" width="13.1147540983607" height="144"   style="fill:#196ABD;stroke:#FFFFFF;stroke-width:1;"/>
<rect x="735.081967213115" y="144" width="13.1147540983607" height="144"   style="fill:#C20B01;stroke:#FFFFFF;stroke-width:1;"/>
<rect x="748.196721311475" y="144" width="13.1147540983607" height="144"   style="fill:#196ABD;stroke:#FFFFFF;stroke-width:1;"/>
<rect x="761.311475409836" y="144" width="13.1147540983607" height="144"   style="fill:#C20B01;stroke:#FFFFFF;stroke-width:1;"/>
<rect x="774.426229508197" y="144" width="13.1147540983607" height="144"   style="fill:#C20B01;stroke:#FFFFFF;stroke-width:1;"/>
<rect x="787.540983606557" y="144" width="13.1147540983607" height="144"   style="fill:#C20B01;stroke:#FFFFFF;stroke-width:1;"/>
<rect x="800.655737704918" y="144" width="13.1147540983607" height="144"   style="fill:#C20B01;stroke:#FFFFFF;stroke-width:1;"/>
<rect x="813.770491803279" y="144" width="13.1147540983607" height="144"   style="fill:#C20B01;stroke:#FFFFFF;stroke-width:1;"/>
<rect x="826.885245901639" y="144" width="13.1147540983607" height="144"   style="fill:#C20B01;stroke:#FFFFFF;stroke-width:1;"/>
<text x="-7.5" y="223.5" style="font-size:15;text-anchor:end;" >Gender</text>
<line x1="0" y1="216" x2="-4.5" y2="216" style="stroke-width:1;"/>
<rect x="0" y="288" width="13.1147540983607" height="144"   style="fill:#E7298A;stroke:#FFFFFF;stroke-width:1;"/>
<rect x="13.1147540983607" y="288" width="13.1147540983607" height="144"   style="fill:#E7298A;stroke:#FFFFFF;stroke-width:1;"/>
<rect x="26.2295081967213" y="288" width="13.1147540983607" height="144"   style="fill:#E7298A;stroke:#FFFFFF;stroke-width:1;"/>
<rect x="39.344262295082" y="288" width="13.1147540983607" height="144"   style="fill:#D95F02;stroke:#FFFFFF;stroke-width:1;"/>
<rect x="52.4590163934426" y="288" width="13.1147540983607" height="144"   style="fill:#D95F02;stroke:#FFFFFF;stroke-width:1;"/>
<rect x="65.5737704918033" y="288" width="13.1147540983607" height="144"   style="fill:#D95F02;stroke:#FFFFFF;stroke-width:1;"/>
<rect x="78.6885245901639" y="288" width="13.1147540983607" height="144"   style="fill:#1B9E77;stroke:#FFFFFF;stroke-width:1;"/>
<rect x="91.8032786885246" y="288" width="13.1147540983607" height="144"   style="fill:#D95F02;stroke:#FFFFFF;stroke-width:1;"/>
<rect x="104.918032786885" y="288" width="13.1147540983607" height="144"   style="fill:#E7298A;stroke:#FFFFFF;stroke-width:1;"/>
<rect x="118.032786885246" y="288" width="13.1147540983607" height="144"   style="fill:#D95F02;stroke:#FFFFFF;stroke-width:1;"/>
<rect x="131.147540983607" y="288" width="13.1147540983607" height="144"   style="fill:#D95F02;stroke:#FFFFFF;stroke-width:1;"/>
<rect x="144.262295081967" y="288" width="13.1147540983607" height="144"   style="fill:#D95F02;stroke:#FFFFFF;stroke-width:1;"/>
<rect x="157.377049180328" y="288" width="13.1147540983607" height="144"   style="fill:#E7298A;stroke:#FFFFFF;stroke-width:1;"/>
<rect x="170.491803278689" y="288" width="13.1147540983607" height="144"   style="fill:#D95F02;stroke:#FFFFFF;stroke-width:1;"/>
<rect x="183.606557377049" y="288" width="13.1147540983607" height="144"   style="fill:#D95F02;stroke:#FFFFFF;stroke-width:1;"/>
<rect x="196.72131147541" y="288" width="13.1147540983607" height="144"   style="fill:#D95F02;stroke:#FFFFFF;stroke-width:1;"/>
<rect x="209.83606557377" y="288" width="13.1147540983607" height="144"   style="fill:#1B9E77;stroke:#FFFFFF;stroke-width:1;"/>
<rect x="222.950819672131" y="288" width="13.1147540983607" height="144"   style="fill:#1B9E77;stroke:#FFFFFF;stroke-width:1;"/>
<rect x="236.065573770492" y="288" width="13.1147540983607" height="144"   style="fill:#D95F02;stroke:#FFFFFF;stroke-width:1;"/>
<rect x="249.180327868852" y="288" width="13.1147540983607" height="144"   style="fill:#1B9E77;stroke:#FFFFFF;stroke-width:1;"/>
<rect x="262.295081967213" y="288" width="13.1147540983607" height="144"   style="fill:#E7298A;stroke:#FFFFFF;stroke-width:1;"/>
<rect x="275.409836065574" y="288" width="13.1147540983607" height="144"   style="fill:#D95F02;stroke:#FFFFFF;stroke-width:1;"/>
<rect x="288.524590163934" y="288" width="13.1147540983607" height="144"   style="fill:#D95F02;stroke:#FFFFFF;stroke-width:1;"/>
<rect x="301.639344262295" y="288" width="13.1147540983607" height="144"   style="fill:#1B9E77;stroke:#FFFFFF;stroke-width:1;"/>
<rect x="314.754098360656" y="288" width="13.1147540983607" height="144"   style="fill:#D95F02;stroke:#FFFFFF;stroke-width:1;"/>
<rect x="327.868852459016" y="288" width="13.1147540983607" height="144"   style="fill:#D95F02;stroke:#FFFFFF;stroke-width:1;"/>
<rect x="340.983606557377" y="288" width="13.1147540983607" height="144"   style="fill:#E7298A;stroke:#FFFFFF;stroke-width:1;"/>
<rect x="354.098360655738" y="288" width="13.1147540983607" height="144"   style="fill:#D95F02;stroke:#FFFFFF;stroke-width:1;"/>
<rect x="387.213114754098" y="288" width="13.1147540983607" height="144"   style="fill:#D95F02;stroke:#FFFFFF;stroke-width:1;"/>
<rect x="400.327868852459" y="288" width="13.1147540983607" height="144"   style="fill:#1B9E77;stroke:#FFFFFF;stroke-width:1;"/>
<rect x="413.44262295082" y="288" width="13.1147540983607" height="144"   style="fill:#1B9E77;stroke:#FFFFFF;stroke-width:1;"/>
<rect x="426.55737704918" y="288" width="13.1147540983607" height="144"   style="fill:#E7298A;stroke:#FFFFFF;stroke-width:1;"/>
<rect x="439.672131147541" y="288" width="13.1147540983607" height="144"   style="fill:#D95F02;stroke:#FFFFFF;stroke-width:1;"/>
<rect x="452.786885245902" y="288" width="13.1147540983607" height="144"   style="fill:#D95F02;stroke:#FFFFFF;stroke-width:1;"/>
<rect x="465.901639344262" y="288" width="13.1147540983607" height="144"   style="fill:#1B9E77;stroke:#FFFFFF;stroke-width:1;"/>
<rect x="479.016393442623" y="288" width="13.1147540983607" height="144"   style="fill:#7570B3;stroke:#FFFFFF;stroke-width:1;"/>
<rect x="492.131147540984" y="288" width="13.1147540983607" height="144"   style="fill:#D95F02;stroke:#FFFFFF;stroke-width:1;"/>
<rect x="505.245901639344" y="288" width="13.1147540983607" height="144"   style="fill:#D95F02;stroke:#FFFFFF;stroke-width:1;"/>
<rect x="518.360655737705" y="288" width="13.1147540983607" height="144"   style="fill:#E7298A;stroke:#FFFFFF;stroke-width:1;"/>
<rect x="531.475409836066" y="288" width="13.1147540983607" height="144"   style="fill:#E7298A;stroke:#FFFFFF;stroke-width:1;"/>
<rect x="544.590163934426" y="288" width="13.1147540983607" height="144"   style="fill:#D95F02;stroke:#FFFFFF;stroke-width:1;"/>
<rect x="557.704918032787" y="288" width="13.1147540983607" height="144"   style="fill:#D95F02;stroke:#FFFFFF;stroke-width:1;"/>
<rect x="570.819672131148" y="288" width="13.1147540983607" height="144"   style="fill:#D95F02;stroke:#FFFFFF;stroke-width:1;"/>
<rect x="603.934426229508" y="288" width="13.1147540983607" height="144"   style="fill:#1B9E77;stroke:#FFFFFF;stroke-width:1;"/>
<rect x="617.049180327869" y="288" width="13.1147540983607" height="144"   style="fill:#E7298A;stroke:#FFFFFF;stroke-width:1;"/>
<rect x="630.16393442623" y="288" width="13.1147540983607" height="144"   style="fill:#E7298A;stroke:#FFFFFF;stroke-width:1;"/>
<rect x="643.27868852459" y="288" width="13.1147540983607" height="144"   style="fill:#7570B3;stroke:#FFFFFF;stroke-width:1;"/>
<rect x="656.393442622951" y="288" width="13.1147540983607" height="144"   style="fill:#D95F02;stroke:#FFFFFF;stroke-width:1;"/>
<rect x="669.508196721311" y="288" width="13.1147540983607" height="144"   style="fill:#D95F02;stroke:#FFFFFF;stroke-width:1;"/>
<rect x="682.622950819672" y="288" width="13.1147540983607" height="144"   style="fill:#1B9E77;stroke:#FFFFFF;stroke-width:1;"/>
<rect x="695.737704918033" y="288" width="13.1147540983607" height="144"   style="fill:#D95F02;stroke:#FFFFFF;stroke-width:1;"/>
<rect x="708.852459016393" y="288" width="13.1147540983607" height="144"   style="fill:#1B9E77;stroke:#FFFFFF;stroke-width:1;"/>
<rect x="721.967213114754" y="288" width="13.1147540983607" height="144"   style="fill:#D95F02;stroke:#FFFFFF;stroke-width:1;"/>
<rect x="735.081967213115" y="288" width="13.1147540983607" height="144"   style="fill:#1B9E77;stroke:#FFFFFF;stroke-width:1;"/>
<rect x="748.196721311475" y="288" width="13.1147540983607" height="144"   style="fill:#E7298A;stroke:#FFFFFF;stroke-width:1;"/>
<rect x="761.311475409836" y="288" width="13.1147540983607" height="144"   style="fill:#1B9E77;stroke:#FFFFFF;stroke-width:1;"/>
<rect x="774.426229508197" y="288" width="13.1147540983607" height="144"   style="fill:#7570B3;stroke:#FFFFFF;stroke-width:1;"/>
<rect x="787.540983606557" y="288" width="13.1147540983607" height="144"   style="fill:#D95F02;stroke:#FFFFFF;stroke-width:1;"/>
<rect x="800.655737704918" y="288" width="13.1147540983607" height="144"   style="fill:#E7298A;stroke:#FFFFFF;stroke-width:1;"/>
<rect x="813.770491803279" y="288" width="13.1147540983607" height="144"   style="fill:#D95F02;stroke:#FFFFFF;stroke-width:1;"/>
<rect x="826.885245901639" y="288" width="13.1147540983607" height="144"   style="fill:#D95F02;stroke:#FFFFFF;stroke-width:1;"/>
<text x="-7.5" y="367.5" style="font-size:15;text-anchor:end;" >Group</text>
<line x1="0" y1="360" x2="-4.5" y2="360" style="stroke-width:1;"/>
<rect x="0" y="432" width="13.1147540983607" height="144"   style="fill:#1B9E77;stroke:#FFFFFF;stroke-width:1;"/>
<rect x="13.1147540983607" y="432" width="13.1147540983607" height="144"   style="fill:#1B9E77;stroke:#FFFFFF;stroke-width:1;"/>
<rect x="26.2295081967213" y="432" width="13.1147540983607" height="144"   style="fill:#1B9E77;stroke:#FFFFFF;stroke-width:1;"/>
<rect x="39.344262295082" y="432" width="13.1147540983607" height="144"   style="fill:#1B9E77;stroke:#FFFFFF;stroke-width:1;"/>
<rect x="52.4590163934426" y="432" width="13.1147540983607" height="144"   style="fill:#1B9E77;stroke:#FFFFFF;stroke-width:1;"/>
<rect x="65.5737704918033" y="432" width="13.1147540983607" height="144"   style="fill:#1B9E77;stroke:#FFFFFF;stroke-width:1;"/>
<rect x="78.6885245901639" y="432" width="13.1147540983607" height="144"   style="fill:#1B9E77;stroke:#FFFFFF;stroke-width:1;"/>
<rect x="91.8032786885246" y="432" width="13.1147540983607" height="144"   style="fill:#1B9E77;stroke:#FFFFFF;stroke-width:1;"/>
<rect x="104.918032786885" y="432" width="13.1147540983607" height="144"   style="fill:#1B9E77;stroke:#FFFFFF;stroke-width:1;"/>
<rect x="118.032786885246" y="432" width="13.1147540983607" height="144"   style="fill:#1B9E77;stroke:#FFFFFF;stroke-width:1;"/>
<rect x="131.147540983607" y="432" width="13.1147540983607" height="144"   style="fill:#1B9E77;stroke:#FFFFFF;stroke-width:1;"/>
<rect x="144.262295081967" y="432" width="13.1147540983607" height="144"   style="fill:#1B9E77;stroke:#FFFFFF;stroke-width:1;"/>
<rect x="157.377049180328" y="432" width="13.1147540983607" height="144"   style="fill:#1B9E77;stroke:#FFFFFF;stroke-width:1;"/>
<rect x="170.491803278689" y="432" width="13.1147540983607" height="144"   style="fill:#1B9E77;stroke:#FFFFFF;stroke-width:1;"/>
<rect x="183.606557377049" y="432" width="13.1147540983607" height="144"   style="fill:#1B9E77;stroke:#FFFFFF;stroke-width:1;"/>
<rect x="196.72131147541" y="432" width="13.1147540983607" height="144"   style="fill:#D95F02;stroke:#FFFFFF;stroke-width:1;"/>
<rect x="209.83606557377" y="432" width="13.1147540983607" height="144"   style="fill:#D95F02;stroke:#FFFFFF;stroke-width:1;"/>
<rect x="222.950819672131" y="432" width="13.1147540983607" height="144"   style="fill:#D95F02;stroke:#FFFFFF;stroke-width:1;"/>
<rect x="236.065573770492" y="432" width="13.1147540983607" height="144"   style="fill:#D95F02;stroke:#FFFFFF;stroke-width:1;"/>
<rect x="249.180327868852" y="432" width="13.1147540983607" height="144"   style="fill:#D95F02;stroke:#FFFFFF;stroke-width:1;"/>
<rect x="262.295081967213" y="432" width="13.1147540983607" height="144"   style="fill:#D95F02;stroke:#FFFFFF;stroke-width:1;"/>
<rect x="275.409836065574" y="432" width="13.1147540983607" height="144"   style="fill:#D95F02;stroke:#FFFFFF;stroke-width:1;"/>
<rect x="288.524590163934" y="432" width="13.1147540983607" height="144"   style="fill:#D95F02;stroke:#FFFFFF;stroke-width:1;"/>
<rect x="301.639344262295" y="432" width="13.1147540983607" height="144"   style="fill:#D95F02;stroke:#FFFFFF;stroke-width:1;"/>
<rect x="314.754098360656" y="432" width="13.1147540983607" height="144"   style="fill:#D95F02;stroke:#FFFFFF;stroke-width:1;"/>
<rect x="327.868852459016" y="432" width="13.1147540983607" height="144"   style="fill:#D95F02;stroke:#FFFFFF;stroke-width:1;"/>
<rect x="340.983606557377" y="432" width="13.1147540983607" height="144"   style="fill:#D95F02;stroke:#FFFFFF;stroke-width:1;"/>
<rect x="354.098360655738" y="432" width="13.1147540983607" height="144"   style="fill:#D95F02;stroke:#FFFFFF;stroke-width:1;"/>
<rect x="387.213114754098" y="432" width="13.1147540983607" height="144"   style="fill:#D95F02;stroke:#FFFFFF;stroke-width:1;"/>
<rect x="400.327868852459" y="432" width="13.1147540983607" height="144"   style="fill:#D95F02;stroke:#FFFFFF;stroke-width:1;"/>
<rect x="413.44262295082" y="432" width="13.1147540983607" height="144"   style="fill:#D95F02;stroke:#FFFFFF;stroke-width:1;"/>
<rect x="426.55737704918" y="432" width="13.1147540983607" height="144"   style="fill:#D95F02;stroke:#FFFFFF;stroke-width:1;"/>
<rect x="439.672131147541" y="432" width="13.1147540983607" height="144"   style="fill:#D95F02;stroke:#FFFFFF;stroke-width:1;"/>
<rect x="452.786885245902" y="432" width="13.1147540983607" height="144"   style="fill:#D95F02;stroke:#FFFFFF;stroke-width:1;"/>
<rect x="465.901639344262" y="432" width="13.1147540983607" height="144"   style="fill:#D95F02;stroke:#FFFFFF;stroke-width:1;"/>
<rect x="479.016393442623" y="432" width="13.1147540983607" height="144"   style="fill:#D95F02;stroke:#FFFFFF;stroke-width:1;"/>
<rect x="492.131147540984" y="432" width="13.1147540983607" height="144"   style="fill:#D95F02;stroke:#FFFFFF;stroke-width:1;"/>
<rect x="505.245901639344" y="432" width="13.1147540983607" height="144"   style="fill:#D95F02;stroke:#FFFFFF;stroke-width:1;"/>
<rect x="518.360655737705" y="432" width="13.1147540983607" height="144"   style="fill:#D95F02;stroke:#FFFFFF;stroke-width:1;"/>
<rect x="531.475409836066" y="432" width="13.1147540983607" height="144"   style="fill:#D95F02;stroke:#FFFFFF;stroke-width:1;"/>
<rect x="544.590163934426" y="432" width="13.1147540983607" height="144"   style="fill:#D95F02;stroke:#FFFFFF;stroke-width:1;"/>
<rect x="557.704918032787" y="432" width="13.1147540983607" height="144"   style="fill:#D95F02;stroke:#FFFFFF;stroke-width:1;"/>
<rect x="570.819672131148" y="432" width="13.1147540983607" height="144"   style="fill:#D95F02;stroke:#FFFFFF;stroke-width:1;"/>
<rect x="603.934426229508" y="432" width="13.1147540983607" height="144"   style="fill:#D95F02;stroke:#FFFFFF;stroke-width:1;"/>
<rect x="617.049180327869" y="432" width="13.1147540983607" height="144"   style="fill:#D95F02;stroke:#FFFFFF;stroke-width:1;"/>
<rect x="630.16393442623" y="432" width="13.1147540983607" height="144"   style="fill:#D95F02;stroke:#FFFFFF;stroke-width:1;"/>
<rect x="643.27868852459" y="432" width="13.1147540983607" height="144"   style="fill:#D95F02;stroke:#FFFFFF;stroke-width:1;"/>
<rect x="656.393442622951" y="432" width="13.1147540983607" height="144"   style="fill:#D95F02;stroke:#FFFFFF;stroke-width:1;"/>
<rect x="669.508196721311" y="432" width="13.1147540983607" height="144"   style="fill:#D95F02;stroke:#FFFFFF;stroke-width:1;"/>
<rect x="682.622950819672" y="432" width="13.1147540983607" height="144"   style="fill:#D95F02;stroke:#FFFFFF;stroke-width:1;"/>
<rect x="695.737704918033" y="432" width="13.1147540983607" height="144"   style="fill:#D95F02;stroke:#FFFFFF;stroke-width:1;"/>
<rect x="708.852459016393" y="432" width="13.1147540983607" height="144"   style="fill:#D95F02;stroke:#FFFFFF;stroke-width:1;"/>
<rect x="721.967213114754" y="432" width="13.1147540983607" height="144"   style="fill:#D95F02;stroke:#FFFFFF;stroke-width:1;"/>
<rect x="735.081967213115" y="432" width="13.1147540983607" height="144"   style="fill:#D95F02;stroke:#FFFFFF;stroke-width:1;"/>
<rect x="748.196721311475" y="432" width="13.1147540983607" height="144"   style="fill:#D95F02;stroke:#FFFFFF;stroke-width:1;"/>
<rect x="761.311475409836" y="432" width="13.1147540983607" height="144"   style="fill:#D95F02;stroke:#FFFFFF;stroke-width:1;"/>
<rect x="774.426229508197" y="432" width="13.1147540983607" height="144"   style="fill:#D95F02;stroke:#FFFFFF;stroke-width:1;"/>
<rect x="787.540983606557" y="432" width="13.1147540983607" height="144"   style="fill:#D95F02;stroke:#FFFFFF;stroke-width:1;"/>
<rect x="800.655737704918" y="432" width="13.1147540983607" height="144"   style="fill:#D95F02;stroke:#FFFFFF;stroke-width:1;"/>
<rect x="813.770491803279" y="432" width="13.1147540983607" height="144"   style="fill:#D95F02;stroke:#FFFFFF;stroke-width:1;"/>
<rect x="826.885245901639" y="432" width="13.1147540983607" height="144"   style="fill:#D95F02;stroke:#FFFFFF;stroke-width:1;"/>
<text x="-7.5" y="511.5" style="font-size:15;text-anchor:end;" >CR</text>
<line x1="0" y1="504" x2="-4.5" y2="504" style="stroke-width:1;"/></g>

<g id="legend_1_outline" style="stroke:#000000;stroke-width:2;font-family:Arial;" >
<rect x="0" y="0" width="367.213114754098" height="576"   style="fill:none;"/> <line x1="387.213114754098" y1="0" x2="387.213114754098" y2="576" />
<rect x="387.213114754098" y="0" width="196.72131147541" height="576"   style="fill:none;"/> <line x1="603.934426229508" y1="0" x2="603.934426229508" y2="576" />
<rect x="603.934426229508" y="0" width="236.065573770492" height="576"   style="fill:none;"/> <line x1="387.213114754098" y1="0" x2="387.213114754098" y2="576" /></g>

<g id="legend_1_leg_text" style="font-family:Arial;" >
<text x="0" y="14" style="font-size:16;font-weight:bold;" >Age</text>
<rect x="126" y="0" width="14" height="14"   style="fill:#696969;stroke-width:0;"/>
<text x="143" y="14" style="font-size:14;" >Adult</text>
<text x="0" y="32" style="font-size:16;font-weight:bold;" >Gender</text>
<rect x="126" y="18" width="14" height="14"   style="fill:#196ABD;stroke-width:0;"/>
<text x="143" y="32" style="font-size:14;" >Female</text>
<rect x="252" y="18" width="14" height="14"   style="fill:#C20B01;stroke-width:0;"/>
<text x="269" y="32" style="font-size:14;" >Male</text>
<text x="0" y="50" style="font-size:16;font-weight:bold;" >Group</text>
<rect x="126" y="36" width="14" height="14"   style="fill:#1B9E77;stroke-width:0;"/>
<text x="143" y="50" style="font-size:14;" >G1</text>
<rect x="252" y="36" width="14" height="14"   style="fill:#D95F02;stroke-width:0;"/>
<text x="269" y="50" style="font-size:14;" >G2</text>
<rect x="378" y="36" width="14" height="14"   style="fill:#7570B3;stroke-width:0;"/>
<text x="395" y="50" style="font-size:14;" >G3a</text>
<rect x="504" y="36" width="14" height="14"   style="fill:#E7298A;stroke-width:0;"/>
<text x="521" y="50" style="font-size:14;" >G3b</text>
<text x="0" y="68" style="font-size:16;font-weight:bold;" >CR</text>
<rect x="126" y="54" width="14" height="14"   style="fill:#1B9E77;stroke-width:0;"/>
<text x="143" y="68" style="font-size:14;" >No</text>
<rect x="252" y="54" width="14" height="14"   style="fill:#D95F02;stroke-width:0;"/>
<text x="269" y="68" style="font-size:14;" >Yes</text></g>

<g id="sample_list" style="font-family:Arial;" >
<text x="6.55737704918033" y="0" style="font-size:13;" transform="rotate(90,6.55737704918033,0) ">A1</text>
<text x="19.672131147541" y="0" style="font-size:13;" transform="rotate(90,19.672131147541,0) ">A3</text>
<text x="32.7868852459016" y="0" style="font-size:13;" transform="rotate(90,32.7868852459016,0) ">A12</text>
<text x="45.9016393442623" y="0" style="font-size:13;" transform="rotate(90,45.9016393442623,0) ">A13</text>
<text x="59.016393442623" y="0" style="font-size:13;" transform="rotate(90,59.016393442623,0) ">A14</text>
<text x="72.1311475409836" y="0" style="font-size:13;" transform="rotate(90,72.1311475409836,0) ">A18</text>
<text x="85.2459016393443" y="0" style="font-size:13;" transform="rotate(90,85.2459016393443,0) ">A24</text>
<text x="98.3606557377049" y="0" style="font-size:13;" transform="rotate(90,98.3606557377049,0) ">A25</text>
<text x="111.475409836066" y="0" style="font-size:13;" transform="rotate(90,111.475409836066,0) ">A26</text>
<text x="124.590163934426" y="0" style="font-size:13;" transform="rotate(90,124.590163934426,0) ">A31</text>
<text x="137.704918032787" y="0" style="font-size:13;" transform="rotate(90,137.704918032787,0) ">A34</text>
<text x="150.819672131148" y="0" style="font-size:13;" transform="rotate(90,150.819672131148,0) ">A38</text>
<text x="163.934426229508" y="0" style="font-size:13;" transform="rotate(90,163.934426229508,0) ">A43</text>
<text x="177.049180327869" y="0" style="font-size:13;" transform="rotate(90,177.049180327869,0) ">A47</text>
<text x="190.16393442623" y="0" style="font-size:13;" transform="rotate(90,190.16393442623,0) ">A58</text>
<text x="203.27868852459" y="0" style="font-size:13;" transform="rotate(90,203.27868852459,0) ">A2</text>
<text x="216.393442622951" y="0" style="font-size:13;" transform="rotate(90,216.393442622951,0) ">A4</text>
<text x="229.508196721311" y="0" style="font-size:13;" transform="rotate(90,229.508196721311,0) ">A5</text>
<text x="242.622950819672" y="0" style="font-size:13;" transform="rotate(90,242.622950819672,0) ">A6</text>
<text x="255.737704918033" y="0" style="font-size:13;" transform="rotate(90,255.737704918033,0) ">A7</text>
<text x="268.852459016393" y="0" style="font-size:13;" transform="rotate(90,268.852459016393,0) ">A8</text>
<text x="281.967213114754" y="0" style="font-size:13;" transform="rotate(90,281.967213114754,0) ">A9</text>
<text x="295.081967213115" y="0" style="font-size:13;" transform="rotate(90,295.081967213115,0) ">A10</text>
<text x="308.196721311475" y="0" style="font-size:13;" transform="rotate(90,308.196721311475,0) ">A11</text>
<text x="321.311475409836" y="0" style="font-size:13;" transform="rotate(90,321.311475409836,0) ">A15</text>
<text x="334.426229508197" y="0" style="font-size:13;" transform="rotate(90,334.426229508197,0) ">A16</text>
<text x="347.540983606557" y="0" style="font-size:13;" transform="rotate(90,347.540983606557,0) ">A17</text>
<text x="360.655737704918" y="0" style="font-size:13;" transform="rotate(90,360.655737704918,0) ">A19</text>
<text x="393.770491803279" y="0" style="font-size:13;" transform="rotate(90,393.770491803279,0) ">A20</text>
<text x="406.885245901639" y="0" style="font-size:13;" transform="rotate(90,406.885245901639,0) ">A21</text>
<text x="420" y="0" style="font-size:13;" transform="rotate(90,420,0) ">A22</text>
<text x="433.114754098361" y="0" style="font-size:13;" transform="rotate(90,433.114754098361,0) ">A23</text>
<text x="446.229508196721" y="0" style="font-size:13;" transform="rotate(90,446.229508196721,0) ">A27</text>
<text x="459.344262295082" y="0" style="font-size:13;" transform="rotate(90,459.344262295082,0) ">A28</text>
<text x="472.459016393443" y="0" style="font-size:13;" transform="rotate(90,472.459016393443,0) ">A29</text>
<text x="485.573770491803" y="0" style="font-size:13;" transform="rotate(90,485.573770491803,0) ">A30</text>
<text x="498.688524590164" y="0" style="font-size:13;" transform="rotate(90,498.688524590164,0) ">A32</text>
<text x="511.803278688525" y="0" style="font-size:13;" transform="rotate(90,511.803278688525,0) ">A33</text>
<text x="524.918032786885" y="0" style="font-size:13;" transform="rotate(90,524.918032786885,0) ">A35</text>
<text x="538.032786885246" y="0" style="font-size:13;" transform="rotate(90,538.032786885246,0) ">A36</text>
<text x="551.147540983607" y="0" style="font-size:13;" transform="rotate(90,551.147540983607,0) ">A37</text>
<text x="564.262295081967" y="0" style="font-size:13;" transform="rotate(90,564.262295081967,0) ">A39</text>
<text x="577.377049180328" y="0" style="font-size:13;" transform="rotate(90,577.377049180328,0) ">A40</text>
<text x="610.491803278689" y="0" style="font-size:13;" transform="rotate(90,610.491803278689,0) ">A41</text>
<text x="623.606557377049" y="0" style="font-size:13;" transform="rotate(90,623.606557377049,0) ">A42</text>
<text x="636.72131147541" y="0" style="font-size:13;" transform="rotate(90,636.72131147541,0) ">A44</text>
<text x="649.83606557377" y="0" style="font-size:13;" transform="rotate(90,649.83606557377,0) ">A45</text>
<text x="662.950819672131" y="0" style="font-size:13;" transform="rotate(90,662.950819672131,0) ">A46</text>
<text x="676.065573770492" y="0" style="font-size:13;" transform="rotate(90,676.065573770492,0) ">A48</text>
<text x="689.180327868852" y="0" style="font-size:13;" transform="rotate(90,689.180327868852,0) ">A49</text>
<text x="702.295081967213" y="0" style="font-size:13;" transform="rotate(90,702.295081967213,0) ">A50</text>
<text x="715.409836065574" y="0" style="font-size:13;" transform="rotate(90,715.409836065574,0) ">A51</text>
<text x="728.524590163934" y="0" style="font-size:13;" transform="rotate(90,728.524590163934,0) ">A52</text>
<text x="741.639344262295" y="0" style="font-size:13;" transform="rotate(90,741.639344262295,0) ">A53</text>
<text x="754.754098360656" y="0" style="font-size:13;" transform="rotate(90,754.754098360656,0) ">A54</text>
<text x="767.868852459016" y="0" style="font-size:13;" transform="rotate(90,767.868852459016,0) ">A55</text>
<text x="780.983606557377" y="0" style="font-size:13;" transform="rotate(90,780.983606557377,0) ">A56</text>
<text x="794.098360655738" y="0" style="font-size:13;" transform="rotate(90,794.098360655738,0) ">A57</text>
<text x="807.213114754098" y="0" style="font-size:13;" transform="rotate(90,807.213114754098,0) ">A59</text>
<text x="820.327868852459" y="0" style="font-size:13;" transform="rotate(90,820.327868852459,0) ">A60</text>
<text x="833.44262295082" y="0" style="font-size:13;" transform="rotate(90,833.44262295082,0) ">A61</text></g>
</defs>


<g id="use" style="font-family:Arial;" transform="translate(20,20)">

<use xlink:href="#legend_1_mat" x="240" y="0"  />
<use xlink:href="#legend_1_outline" x="240" y="0"  />
<use xlink:href="#legend_1_leg_text" x="24" y="716"  />
<use xlink:href="#sample_list" x="240" y="586"  /></g>


</svg>


